<?xml version="1.0" encoding="UTF-8" standalone="no"?>
<!-- Animation (CC) by MikloBit -->
<!DOCTYPE svg [
   <!ENTITY animDuration "8s">
   <!ENTITY boundingCircleRadius "100">
   <!ENTITY clippingCircleRadius "50">   
]>

<svg width="200" height="200" viewBox="0 0 210 210" version="1.1" xmlns="http://www.w3.org/2000/svg" xmlns:xlink="http://www.w3.org/1999/xlink">


<defs>  
   <!-- OC logo combined with PL flag -->	
   <g id="slonce_oc" style="display:inline">
    <path id="slonce_oc_elem_1" 
       d="M 257.85764,0.10493542 233.63465,47.76953"       
       style="fill:#ede815;fill-opacity:1;stroke:#000000;stroke-width:1px;stroke-linecap:butt;stroke-linejoin:miter;stroke-opacity:1" />
    <path id="slonce_oc_elem_2"
       d="m 150.13789,59.490331 16.07424,-1.897653"      
       style="fill:#ede815;fill-opacity:1;stroke:#000000;stroke-width:1px;stroke-linecap:butt;stroke-linejoin:miter;stroke-opacity:1" />
    <path id="slonce_oc_elem_3"
       d="m 197.44352,99.208531 -10.51133,8.850629 -4.67664,3.81767 -4.76572,-25.845619 23.82225,9.30874 -0.17179,1.42527 z m -53.64463,63.621459 c 0,-13.12642 -14.22719,-16.84228 9.39783,-18.81475 z m 173.65944,-113.951079 6.72546,11.55481 -22.45426,-0.28633 z m 67.33097,290.855499 5.65652,10.23136 -12.84009,-1.38072 z m -189.76364,46.04747 c 4.47303,0.0763 8.93334,-0.1718 6.1528,3.70314 -1.30436,1.81339 -3.61405,6.43913 -4.85479,7.34264 z M 257.90625,0 l -21.1875,41.25 -0.15625,-0.0625 -2.59375,5.375 -0.59375,1.1875 c 0.0101,8.45e-4 0.0213,-8.51e-4 0.0312,0 l -10.0937,21.03125 c -15.93287,-5.742037 -32.94835,-11.2855 -53.96875,-11.1875 l -3.21875,-0.0625 -15.6875,1.84375 0,4.4375 0.53125,4.96875 3.0625,31.34375 -0.0312,0 1.3125,15.09375 L 151,117 c -0.0123,-0.0263 -0.0189,-0.068 -0.0312,-0.0937 l -3.71875,1.6875 -2.4375,1 0.0312,0.0625 -60.0625,27 -0.09375,-0.0312 44.40625,38.03125 -2.4375,2.5 -55.875,49.34375 7.1875,1 19.84375,2.78125 0.09375,0 c 7.59061,1.20073 18.40912,12.73746 17.6875,23.21875 -0.009,0.12505 -0.0195,0.25027 -0.0312,0.375 -0.0327,0.34255 -0.0666,0.69164 -0.125,1.03125 l 0.0937,0 c -0.32196,4.7705 -2.22327,9.51032 -4.90625,11.3125 l -40.03125,61.84375 7.9375,-0.96875 47.5625,-7.1875 L 125,337.625 l -4.90625,39.0625 0.375,-3.03125 -2.09375,16 4.375,-1.15625 0.0312,0.0312 42.46875,-10.40625 2.3125,8.1875 7.3125,23.375 0.28125,0.875 0.125,0.40625 0.0937,0.25 0.5,1.65625 c 0.0233,0.005 0.0392,0.0258 0.0625,0.0312 l 5.9375,17.25 0.0312,0 4.46875,14.78125 0.25,0.375 1.40625,-1.46875 10.40625,-11.71875 16.84375,-17.1875 -0.125,-0.0312 4.90625,-5.3125 5.59375,6.59375 0.15625,-0.0312 10.90625,11.65625 0.875,0.9375 L 277.75,472.46875 288.15625,419.5 c -0.0716,0.002 -0.17235,0.0272 -0.25,0.0312 l 4.625,-20.21875 0.28125,-1.78125 20.9375,10.2188 c -0.0495,0.0424 -0.1073,0.0824 -0.15625,0.125 l 38.03125,20.46875 6.75,-56.40625 4.4375,0.0312 69.96875,-4.0625 -23.5625,-40.46875 54.25,7.4375 1.78125,-0.0625 -30.53125,-46.40625 -6.5625,-9.46875 L 490,242.5 l 2.78125,-2.78125 -36.5,-22.6875 -8.125,-4.6875 45.1875,-25.1875 5.6875,-3.25 -30.59375,-10.5625 -3.875,-1.125 -8.78125,-2.875 29.8125,-31.96875 3.3125,-3.3125 1.6875,-2.375 -49.8125,-5.9375 -2.75,-0.53125 -10,-0.78125 32.6875,-44.59375 3.3125,-4.40625 4.40625,-6.6875 -57.53125,17.1875 -2.75,1.09375 -7.6875,2.375 11,-43.84375 1.65625,-6.65625 1.46875,-7.46875 -50.6875,34.03125 -3.25,2.28125 L 329.625,15.6875 325.46875,8.65625 325.25,8 282.59375,51.09375 277.78125,56.1875 261.03125,8.46875 257.90625,0 z m 54.78125,90.15625 c 8.51937,-0.0803 15.89478,0.584222 22.53125,1.03125 0.16416,0.08957 0.33692,0.195028 0.5,0.28125 12.71283,0.27995 31.39623,11.17097 39.71875,16.6875 6.62367,4.39031 24.29944,22.07592 26.09375,29.78125 7.85167,9.03516 13.8125,36.64152 13.8125,54.75 l 0,2.78125 c 0,29.17973 -11.68299,64.08845 -23.21875,81.3125 l -4.71875,7.28125 0.0625,-0.375 c -10.14239,15.19828 -15.35568,23.55267 -36.53125,43.6875 -0.012,0.009 -0.0192,0.0224 -0.0312,0.0312 -4.58059,3.39523 -9.61916,8.08754 -14.3125,11.65625 -5.6947,4.33307 -11.51278,7.7847 -17.84375,11.46875 -12.35653,7.17722 -25.84401,13.52027 -41.34375,17.3125 -12.961,3.17502 -37.89855,6.72053 -52.4375,3.09375 -7.71806,-1.92157 -16.81369,-3.11371 -23.09375,-6.21875 -3.97038,-1.9661 -16.20117,-7.694 -18.25,-10.5 -12.73191,-6.73818 -24.51052,-23.59886 -30.96875,-37.0625 -4.30139,-4.95647 -10.5313,-32.07602 -10.5313,-42.5937 l 0,-14.375 1.375,-10.90625 c 0.03,-0.22624 0.0625,-0.45968 0.0937,-0.6875 0.84058,-6.0798 2.21275,-12.74747 3.875,-19.90625 l 0.1875,-0.0312 c 0.52811,-6.36279 7.54114,-23.00723 10.15625,-28.59375 4.2252,-9.05142 8.65512,-15.85192 13,-23.90625 0.0178,-0.0331 0.0447,-0.0608 0.0625,-0.0937 3.57715,-5.85715 6.92966,-10.67826 11.09375,-15.4375 1.02969,-1.17686 2.10635,-2.34515 3.25,-3.53125 l 0,-0.1875 c 12.52076,-14.29438 22.73169,-25.04579 39.3125,-36.6875 8.97892,-6.29829 20.94802,-13.22875 33.46875,-18.6875 0.18422,-0.0803 0.37804,-0.13908 0.5625,-0.21875 22.53657,-8.80969 39.92605,-11.022414 54.125,-11.15625 z m -65.65625,306.28125 22.875,0.34375 -1.125,11.09375 0,0.25 -0.21875,0.0625 -1.1875,12.4375 -8,-9.96875 -0.21875,-0.25 -1.53125,-1.90625 -0.0937,0.0312 -10.5,-12.09375 z"       
       style="fill:#ede815;fill-opacity:1;stroke:#000000;stroke-width:1.77165353;stroke-linecap:butt;stroke-linejoin:miter;stroke-miterlimit:4;stroke-opacity:1;stroke-dasharray:none" />
  </g>
  <g id="flaga_pl" style="display:inline">
    <path id="flaga_pl_czerwony"
       d="M 15.092803,280.84438 143.62,232.24165 l 101.5257,-29.16163 123.12689,-14.04079 14.04079,56.16315 -12.96073,77.76435 -48.60271,70.20393 -50.76285,21.60122 -46.44261,7.56041 -42.12236,-1.08005 L 133.89946,405.05133 76.656261,372.64951 41.014258,339.16764 19.413042,300.28545 z"      
       style="fill:#ff0000;stroke:#000000;stroke-width:0;stroke-linecap:butt;stroke-linejoin:miter;stroke-miterlimit:4;stroke-opacity:1;stroke-dasharray:none;display:inline" />
    <path id="flaga_pl_bialy"
       d="M 368.22187,178.99599 352.17129,134.05435 290.10905,81.622438 204.50592,54.871465 165.98451,49.52126 106.06233,64.501827 70.75104,91.252784 45.070115,125.49403 23.66933,167.22556 11.898906,215.3773 l -2.1400781,43.87162 9.6303451,31.03113 96.303497,-39.59146 96.30353,-29.96109 78.11285,-17.12062 71.69261,-11.77042 z"       
       style="fill:#ffffff;stroke:none;display:inline" />
  </g>
  <g id="krzyz_oc" style="display:inline">
    <path id="oc_krzyz"
       d="m 45.90111,352.01459 c 2.80599,1.88338 9.4042,10.23135 12.58558,13.41911 4.47304,4.47303 8.88246,8.35433 13.26641,12.72557 6.90998,6.89724 21.48075,17.19223 30.75133,21.79253 12.22927,6.08281 63.20788,26.74278 78.34495,26.74278 l 20.4627,2.21424 35.39617,-1.10712 c 8.10618,0 19.3874,-1.67342 26.98457,-2.88235 5.88557,-0.93532 20.31637,-5.31928 24.45217,-5.41472 l 25.44478,-11.61845 c 3.86856,-3.3659 9.55689,-6.12736 13.69906,-10.07864 4.27579,-4.08491 7.94711,-8.01075 12.15292,-12.18473 6.24825,-6.18463 17.11589,-19.34922 21.82434,-26.84458 6.23554,-9.91958 12.57923,-20.26546 16.41599,-32.27205 3.2641,-10.22499 8.07437,-27.69718 8.35433,-40.31459 l 0.68082,-10.50495 -0.12726,-16.05331 c 0,-14.96526 -1.6925,-28.35891 -4.19307,-41.1672 -2.53239,-12.95463 -6.40732,-24.2422 -9.0797,-35.72703 -1.06258,-2.01064 -3.25137,-8.85062 -5.52925,-8.85062 l -3.32137,0 c -13.60364,0 -31.01858,4.12944 -43.62961,6.14644 -13.99812,2.2397 -27.83082,5.38291 -41.30718,8.46887 -13.02462,2.97778 -27.74811,6.18463 -39.50016,10.28226 -6.20371,2.15698 -12.85283,3.88129 -18.87839,6.0001 -3.37227,1.18983 -15.4552,6.53457 -17.6249,6.72546 -0.94169,0.81444 -0.96715,1.10076 -2.76781,1.10076 -2.01701,0 -13.88996,-31.48941 -14.93346,-35.95608 l -3.86857,-16.0469 c -1.97246,-8.47524 -7.51444,-60.29374 -14.37989,-59.18662 l -13.27913,1.66069 -6.42004,0.63628 3.10503,13.19004 c 1.55888,3.24503 3.02233,11.44665 4.09127,15.82426 0.92897,3.79221 3.56952,10.62584 5.13477,14.22717 1.53979,3.56316 11.08397,26.14463 11.24304,28.03439 l 4.42213,9.95774 c 2.50694,4.74665 4.30124,10.33953 6.24825,15.87515 1.64797,4.69574 5.64379,12.56014 6.47095,15.65881 -3.62678,0.83989 -9.51872,3.86858 -14.60894,5.30021 -3.92585,1.11348 -11.43392,3.77948 -15.25796,4.10398 l -11.05852,2.76146 -49.77605,11.6248 -16.59413,5.5229 c -7.46355,4.74028 -20.85084,7.16449 -26.54554,14.9398 4.68301,6.99271 8.0871,19.31742 15.48066,23.2369 21.46802,0 31.19036,-12.97372 45.35391,-20.46907 6.36914,-5.53563 18.83384,-14.41172 28.21258,-16.60051 6.62365,-3.50589 18.93564,-7.51444 26.71097,-10.33952 4.44121,-1.61615 9.44237,-3.88129 13.65453,-5.14749 7.62261,-2.29061 6.95452,-2.30333 10.51131,4.42213 l 2.21425,4.98206 c 3.14322,2.30969 8.74883,20.97173 10.56222,26.49463 3.07323,9.30875 4.59393,19.66736 7.01179,29.49786 2.64055,10.69584 12.15292,52.13665 19.48285,54.09638 3.20683,-2.79325 12.15927,-5.19202 12.15927,-10.51768 l 0,-2.20789 c 0,-15.78606 -9.09241,-47.61906 -13.50183,-60.61823 -2.69145,-7.95348 -7.85166,-18.07031 -11.56754,-25.49566 -4.24397,-8.48797 -8.19526,-16.87411 -12.53467,-25.0821 3.58224,-6.77001 54.53541,-17.2177 68.01814,-17.15406 14.19538,0.07 28.40347,0.006 42.59247,0.006 13.85178,0 27.02274,-2.20789 40.37823,-2.20789 l 2.76144,0 c 2.46877,0 2.76782,7.32993 2.76782,9.95776 0,5.13477 1.10712,8.17617 1.10712,14.37989 0,5.77104 0.55356,9.39147 0.54721,14.93345 0,10.00866 -1.03079,20.38635 -1.65433,29.31971 -1.06895,15.09888 -6.70002,39.45562 -12.17201,49.78877 -3.32773,14.30991 -23.24325,40.84272 -33.03557,49.93513 -7.33628,6.80818 -13.94722,13.29185 -23.00145,18.47752 -6.73183,3.86221 -20.3291,12.21654 -28.02807,14.01721 l -6.63002,1.65432 -2.76781,0.55357 -33.73548,5.53562 -12.172,0.5472 c -17.10952,0 -24.03223,-0.70627 -37.60405,-3.86858 -9.40419,-2.19516 -33.0992,-11.16031 -38.71753,-16.04058 l -14.37989,-8.29705 -3.87494,-2.21426 -42.02618,-24.8912 C 64.63951,353.22316 59.84196,347.42667 51.33493,335.5219 46.83644,329.23547 35.58704,309.07817 33.73547,301.12469 29.63148,295.21367 22.11703,257.406 22.11703,245.80029 l 0,-24.89121 c 0,-19.39376 8.60885,-43.31147 13.3873,-59.08476 5.52288,-18.26756 15.08616,-33.10556 25.55293,-46.90008 9.70325,-12.81464 23.14145,-26.997289 37.19682,-35.268899 11.20487,-6.59185 35.5616,-20.27183 52.18119,-20.27183 l 16.57505,-1.84522 2.22697,0.17817 c 23.94315,0 42.78973,6.96088 60.66278,13.45091 9.64599,3.49954 45.67842,17.83489 51.05497,22.50517 l 7.18995,3.87494 c 2.65329,0.62356 17.08407,10.275899 19.22197,12.305629 4.60029,4.36486 11.56118,10.88035 14.51351,16.46051 l 14.37989,20.46908 2.76145,-1.10077 c 5.5229,-3.84311 24.8912,-7.53353 24.8912,-16.04694 l 0,-1.66069 c 0,-2.21424 -1.15803,-5.03932 -1.66069,-7.18994 -1.15166,-4.9566 -8.21434,-13.33639 -11.54208,-16.66413 -3.21321,-3.2132 -13.33639,-10.390419 -15.00344,-12.655559 -3.65861,-1.9343 -7.60354,-4.74029 -11.1667,-7.08815 -3.69676,-2.44967 -7.85803,-4.25671 -11.61843,-6.63002 -5.82195,-3.67133 -17.57401,-9.79869 -24.15312,-12.35653 -14.4308,-5.61198 -37.3241,-16.12329 -55.38167,-17.63127 l -23.77772,-2.20788 -45.90112,0 c -58.92573,0 -85.23584,28.48617 -109.5035,63.067909 -10.18045,14.51986 -25.3175,37.15228 -31.45123,54.84082 -3.68405,10.64489 -8.22708,19.77549 -10.91854,32.22745 -2.26515,10.46042 -6.30552,24.9612 -6.30552,36.84052 l 0,17.14771 c 0,13.70543 8.47523,49.5788 13.17097,58.18764 4.53666,8.32888 6.78909,15.22615 12.15928,23.24325 1.91519,2.86325 14.83801,20.34181 15.04161,20.90811"       
       style="fill:#000000;fill-opacity:1;fill-rule:evenodd;stroke:none" />
  </g>	
  
  <g id="logo1" transform="translate(0,10) scale(0.38)" > 
 	<use xlink:href="#slonce_oc" /> 
 	<use xlink:href="#oc_krzyz" />   
  </g>	
  
  <g id="logo2" transform="translate(0,10) scale(0.38)"> 
 	<use xlink:href="#flaga_pl" /> 
 	<use xlink:href="#oc_krzyz" />   
  </g>	  
  
  <g id="logo3" transform="translate(0,10) scale(0.38)"> 
 	<use xlink:href="#oc_krzyz" />   
  </g>	   
 		
	<circle id="Circle1" r="&boundingCircleRadius;"  cy="100" cx="100" />
	<!-- base animation path - circle(50,50,r40) -->
    <path id="CirclePath1" d="m50,100c0,-27.62431 22.37569,-50 50,-50c27.62431,0 50,22.37569 50,50c0,27.62431 -22.37569,50 -50,50c-27.62431,0 -50,-22.37569 -50,-50z" />	
	<!-- base path reoriented after 180 rotaton ( in http://code.google.com/p/svg-edit/ ) -->
    <path id="CirclePath2" d="m150,100c0,27.62431 -22.37569,50 -50,50c-27.62431,0 -50,-22.37569 -50,-50c0,-27.62431 22.37569,-50 50,-50c27.62431,0 50,22.37569 50,50z" />	
</defs>
 
  <clipPath id="circle-clip1">
   <circle id="myClip1" cx="0" cy="0" r="&clippingCircleRadius;">
		<animateMotion begin="0s" dur="&animDuration;" repeatCount="indefinite">
		  <mpath xlink:href="#CirclePath1"  />
		</animateMotion>
	</circle> 
  </clipPath>  
  
  <clipPath id="circle-clip2">
   <circle id="myClip2" cx="0" cy="0" r="&clippingCircleRadius;">
		<animateMotion begin="0s" dur="&animDuration;" repeatCount="indefinite">
		  <mpath xlink:href="#CirclePath2"  />
		</animateMotion>
	</circle> 
  </clipPath>   
     
 
 <g id="oc_logo_animated" >  
 <!--
 <use xlink:href="#Circle1" stroke="black" stroke-width="1" fill="none" transform="translate(0)"/>
 -->
 <use xlink:href="#logo3" transform="translate(0)"/>  
 <a xlink:href="http://opencaching.pl" xlink:show="new">  
 	<use xlink:href="#logo1" style="clip-path: url(#circle-clip1)" transform="translate(0)"/> 
 </a>	
 <a xlink:href="http://opencaching.pl/viewprofile.php?userid=1486" xlink:show="new">   
 	<use xlink:href="#logo2" style="clip-path: url(#circle-clip2)" transform="translate(0)"/> 
 </a>	
 <use xlink:href="#myClip1" stroke="black" stroke-width="1" fill="none" transform="translate(0)"/> 
 <use xlink:href="#myClip2" stroke="black" stroke-width="1" fill="none" transform="translate(0)"/> 
 </g>
    
</svg>