<?xml version="1.0" encoding="UTF-8" standalone="no"?>
<!-- Created with Inkscape (http://www.inkscape.org/) -->

<svg
   xmlns:dc="http://purl.org/dc/elements/1.1/"
   xmlns:cc="http://creativecommons.org/ns#"
   xmlns:rdf="http://www.w3.org/1999/02/22-rdf-syntax-ns#"
   xmlns:svg="http://www.w3.org/2000/svg"
   xmlns="http://www.w3.org/2000/svg"
   version="1.1"
   width="260"
   height="300"
   id="svg2">
  <metadata
     id="metadata388">
    <rdf:RDF>
      <cc:Work
         rdf:about="">
        <dc:format>image/svg+xml</dc:format>
        <dc:type
           rdf:resource="http://purl.org/dc/dcmitype/StillImage" />
        <dc:title></dc:title>
      </cc:Work>
    </rdf:RDF>
  </metadata>
  <defs
     id="defs4">
    <filter
       color-interpolation-filters="sRGB"
       id="filter3815">
      <feGaussianBlur
         id="feGaussianBlur3817"
         stdDeviation="5.340000038146971" />
    </filter>
  </defs>
  <g
     transform="translate(0.5000000000001989,100.5)"
     id="g7169">
    <path
       d="m 252.9999999999998,-94.0000019073488 -1e-13,228.10791539586409 c -0.080027827089,50.1520039364233 -38.94172292907,42.3063914673004 -87.6762066113605,49.5654268923155 -23.0653550737445,3.0177721181528 -32.2242124255187,6.7934943734441 -35.8237948037587,9.326661526518 -3.5995788404416,-2.5331671530737 -12.7584397300142,-6.3088894083652 -35.82359314925822,-9.326661526518 C 44.9417236366296,176.4143049558157 6.07973135959449,184.2599174249386 6.000000000000071,134.1079134885153 l 0,-228.10791539586409 246.999999999999715,0 z"
       id="path3015"
       style="fill:#f5f5f5;fill-opacity:1;stroke:none" />
    <path
       d="m 97.875,-94 -14.6875,20.125 0,35 -15.46875,21.15625 61.78125,0 -15.4375,-21.15625 0,-35 L 99.34375,-94 97.875,-94 z m 31.625,76.28125 -15.4375,21.15625 0,35 -15.4375,21.15625 61.75,0 -15.4375,-21.15625 0,-35 L 129.5,-17.71875 z m 30.875,77.3125 -15.4375,21.15625 0,35 -15.4375,21.15625 61.78125,0 -15.46875,-21.15625 0,-35 -15.4375,-21.15625 z m 30.90625,77.3125 -15.46875,21.15625 0,24.25 c 11.0747001094485,-1.2788760234411 21.4979535980225,-2.0390740991954 30.875,-3.1875 l 0,-21.0625 -15.40625,-21.15625 z M 221.40625,-94 l -14.71875,20.125 0,35 -15.40625,21.15625 61.71875,0 0,-0.03125 -15.40625,-21.125 0,-35 L 222.875,-94 l -1.46875,0 z M 6,-17.6875 l 0,77.28125 30.84375,0 -15.4375,-21.15625 0,-35 L 6,-17.6875 z M 36.84375,59.59375 21.40625,80.75 l 0,35 -15.34375,21.0625 c 9.75507064416e-4,0.031219718427 -0.0010078108065,0.062578117027 0,0.09375 l 61.65625,0 L 52.3125,115.75 l 0,-35 -15.46875,-21.15625 z m 30.875,77.3125 -15.40625,21.15625 0,21.0625 c 9.37709184825281,1.1484259008046 19.80025081552014,1.9086239765589 30.875,3.1875 l 0,-24.25 -15.46875,-21.15625 z M 253,-17.6875 l -15.40625,21.125 0,35 -15.4375,21.15625 30.84375,0 0,-77.28125 z"
       id="path4769"
       style="color:#000000;fill:#f9d26d;fill-opacity:1;fill-rule:nonzero;stroke:#000000;stroke-width:1;marker:none;visibility:visible;display:inline;overflow:visible" />
    <path
       d="m 37.59375,-94 14.71875,20.125 0,35 15.40625,21.15625 15.46875,-21.15625 0,-35 L 97.875,-94 37.59375,-94 z m 30.125,76.28125 15.46875,21.15625 0,35 15.4375,21.15625 15.4375,-21.15625 0,-35 15.4375,-21.15625 -61.78125,0 z M 98.625,59.59375 114.0625,80.75 l 0,35 15.4375,21.15625 15.4375,-21.15625 0,-35 15.4375,-21.15625 -61.75,0 z m 30.875,77.3125 15.4375,21.15625 0,29.1875 c 5.1618081386593,-1.2297811672801 11.7920627052573,-2.4395453011837 20.375,-3.5625 3.5571410260222,-0.5298386433722 7.0592965114887,-0.9776769888358 10.5,-1.375 l 0,-24.25 15.46875,-21.15625 -61.78125,0 z M 161.125,-94 l 14.6875,20.125 0,35 15.46875,21.15625 15.40625,-21.15625 0,-35 L 221.40625,-94 161.125,-94 z m 30.15625,76.28125 15.40625,21.15625 0,35 15.46875,21.15625 15.4375,-21.15625 0,-35 15.40625,-21.125 0,-0.03125 -61.71875,0 z m 30.875,77.3125 15.4375,21.15625 0,35 15.34375,21.0625 c 0.027698631764,-0.8862931175579 0.061023461163,-1.7934295923053 0.0625,-2.71875 l 0,-74.5 -30.84375,0 z m -216.15625,0 0,74.5 c 0.001471068918,0.9253204076947 0.03480643833796,1.8324568824421 0.0625,2.71875 l 15.34375,-21.0625 0,-35 15.4375,-21.15625 -30.84375,0 z m 0.0625,77.3125 c 0.0010078108065,0.031171882973 -0.0010400986764,0.062625912345 0,0.09375 l 15.34375,21.0625 0,12.15625 c 7.91067378257549,5.1475119432931 18.49792269082055,7.386584340526 30.90625,8.90625 l 0,-21.0625 15.40625,-21.15625 -61.65625,0 z"
       id="path4767"
       style="color:#000000;fill:#c83232;fill-opacity:1;fill-rule:nonzero;stroke:#000000;stroke-width:1;stroke-miterlimit:4;stroke-dasharray:none;marker:none;visibility:visible;display:inline;overflow:visible" />
    <path
       d="m 6,-94 0,76.25 15.40625,-21.125 0,-35 L 36.125,-94 6,-94 z m 93.34375,0 14.71875,20.125 0,35 15.4375,21.15625 15.4375,-21.15625 0,-35 14.71875,-20.125 -60.3125,0 z M 129.5,-17.71875 144.9375,3.4375 l 0,35 15.4375,21.15625 15.4375,-21.15625 0,-35 15.46875,-21.15625 -61.78125,0 z m 30.875,77.3125 15.4375,21.15625 0,35 15.46875,21.15625 15.40625,-21.15625 0,-35 15.46875,-21.15625 -61.78125,0 z m 30.90625,77.3125 15.40625,21.15625 0,21.0625 c 12.408267171957,-1.519665659474 22.9955934595071,-3.7587380567069 30.90625,-8.90625 l 0,-12.15625 15.34375,-21.09375 c 6.863437293e-4,-0.020760009979 -6.719926071e-4,-0.041718744685 0,-0.0625 l -61.65625,0 z M 222.875,-94 l 14.71875,20.125 0,35 L 253,-17.75 253,-94 222.875,-94 z M 6,-17.71875 l 0,0.03125 15.40625,21.125 0,35 15.4375,21.15625 15.46875,-21.15625 0,-35 15.40625,-21.15625 -61.71875,0 z M 36.84375,59.59375 52.3125,80.75 l 0,35 15.40625,21.15625 15.46875,-21.15625 0,-35 15.4375,-21.15625 -61.78125,0 z m 30.875,77.3125 15.46875,21.15625 0,24.25 c 3.44071873521146,0.3973230111642 6.94284451339473,0.8451613566278 10.5,1.375 8.5828622563169,1.1229546988163 15.21322101168759,2.3327188327199 20.375,3.5625 l 0,-29.1875 15.4375,-21.15625 -61.78125,0 z"
       id="path9372"
       style="color:#000000;fill:#222222;fill-opacity:1;fill-rule:nonzero;stroke:#000000;stroke-width:1;stroke-miterlimit:4;stroke-dasharray:none;marker:none;visibility:visible;display:inline;overflow:visible" />
    <path
       d="m 252.9999999999998,-94.0000019073488 -1e-13,228.10791539586409 c -0.080027827089,50.1520039364233 -38.94172292907,42.3063914673004 -87.6762066113605,49.5654268923155 -23.0653550737445,3.0177721181528 -32.2242124255187,6.7934943734441 -35.8237948037587,9.326661526518 -3.5995788404416,-2.5331671530737 -12.7584397300142,-6.3088894083652 -35.82359314925826,-9.326661526518 -48.7346817989929,-7.2590354250151 -87.596674076028023,0.5865770441078 -87.676405435622456,-49.5654268923155 l 0,-228.10791539586409 247,0 z"
       id="path3292"
       style="fill:none;stroke:#000000;stroke-width:3;stroke-miterlimit:4;stroke-dasharray:none" />
  </g>
</svg>
